<?xml version="1.0" standalone="no"?>
<!DOCTYPE svg PUBLIC "-//W3C//DTD SVG 20010904//EN"
 "http://www.w3.org/TR/2001/REC-SVG-20010904/DTD/svg10.dtd">
<svg version="1.0" xmlns="http://www.w3.org/2000/svg"
 width="1463.000000pt" height="738.000000pt" viewBox="0 0 1463.000000 738.000000"
 preserveAspectRatio="xMidYMid meet">
<metadata>
Created by potrace 1.16, written by Peter Selinger 2001-2019
</metadata>
<g transform="translate(0.000000,738.000000) scale(0.100000,-0.100000)"
fill="#000000" stroke="none">
<path d="M1148 5974 c-17 -9 -32 -28 -39 -53 -11 -37 1 -89 181 -813 106 -425
197 -780 202 -788 4 -8 168 -658 364 -1445 196 -786 362 -1442 370 -1457 8
-15 29 -35 47 -44 30 -16 356 -17 4885 -11 4523 6 4855 7 4888 23 20 9 42 27
50 39 13 20 144 460 144 485 0 6 -75 10 -220 10 l-220 0 0 640 0 640 90 0 90
0 0 -555 0 -556 157 3 157 3 77 270 c118 414 373 1313 445 1570 36 127 68 237
73 246 16 28 471 1644 471 1671 0 16 -12 41 -29 60 l-29 33 -484 1 c-266 1
-1536 4 -2823 8 -1287 3 -2623 9 -2970 11 l-630 5 110 -40 c61 -23 270 -97
465 -165 711 -247 2243 -782 2338 -815 l32 -12 0 -94 0 -94 -3320 0 -3320 0 0
98 0 97 208 72 c494 171 985 341 1362 473 223 77 437 152 475 165 39 14 256
90 484 169 l415 144 -1095 6 c-2985 16 -3372 16 -3401 0z m7836 -1304 c135
-42 243 -159 280 -304 22 -91 23 -563 1 -649 -60 -231 -263 -361 -507 -327
-187 27 -320 148 -363 332 -17 73 -21 522 -6 604 25 131 104 250 205 309 97
57 269 72 390 35z m-5955 -52 c13 -35 47 -128 76 -208 46 -127 282 -765 300
-813 7 -16 1 -18 -81 -15 l-88 3 -40 117 -41 118 -216 0 -216 0 -32 -92 c-58
-166 -41 -148 -137 -148 -46 0 -84 2 -84 5 0 4 369 1012 392 1068 10 26 14 27
77 27 l67 0 23 -62z m1141 -18 l0 -80 -155 0 -155 0 0 -470 0 -470 -80 0 -80
0 0 470 0 470 -155 0 -155 0 0 80 0 80 390 0 390 0 0 -80z m800 0 l0 -80 -275
0 -275 0 0 -160 0 -160 235 0 235 0 0 -75 0 -75 -235 0 -235 0 0 -160 0 -160
275 0 275 0 0 -77 0 -78 -353 0 -352 0 -3 540 c-1 297 0 546 3 553 3 9 84 12
355 12 l350 0 0 -80z m642 -72 c52 -84 245 -389 428 -678 183 -289 396 -626
474 -750 78 -124 176 -278 217 -343 l74 -117 3 1020 2 1020 188 -2 187 -3 3
-1367 2 -1368 -178 0 -179 0 -145 228 c-80 125 -319 499 -533 832 -213 333
-435 680 -494 771 l-106 166 -3 -999 -2 -998 -190 0 -190 0 0 1370 0 1370 173
0 172 0 97 -152z m2688 62 l0 -91 -320 3 -320 3 0 -192 0 -193 270 0 270 0 0
-85 0 -85 -270 0 -270 0 0 -190 0 -190 320 0 320 0 0 -85 0 -85 -410 0 -410 0
0 640 0 640 410 0 410 0 0 -90z m-247 -1400 c123 -38 217 -128 269 -259 21
-53 23 -74 26 -339 4 -308 -1 -351 -48 -450 -93 -198 -341 -288 -570 -207
-116 41 -208 137 -252 262 -22 65 -23 80 -23 363 0 337 4 362 78 471 50 75
125 131 212 159 84 26 222 27 308 0z m1119 -28 c80 -39 138 -101 170 -181 31
-79 31 -222 -1 -302 -28 -74 -86 -139 -155 -175 l-55 -29 76 -145 c41 -80 107
-205 145 -277 l70 -133 -109 0 -108 0 -135 270 -135 270 -132 0 -133 0 0 -270
0 -270 -90 0 -90 0 0 641 0 640 308 -3 307 -3 67 -33z m699 -377 c101 -228
186 -415 190 -415 3 0 14 21 26 48 67 152 189 427 217 487 18 39 54 121 82
183 l49 112 87 0 88 0 0 -640 0 -640 -90 0 -90 0 -2 433 -3 432 -74 -170 c-40
-93 -107 -248 -149 -342 l-75 -173 -66 0 -67 0 -56 128 c-32 70 -98 219 -148
332 -50 112 -92 205 -93 206 -1 1 -1 -189 1 -422 l3 -424 -91 0 -90 0 0 640 0
640 84 0 84 0 183 -415z m1645 -225 c129 -349 234 -635 234 -637 0 -2 -45 -3
-99 -3 -97 0 -99 1 -105 25 -3 13 -25 76 -47 140 l-41 115 -257 0 -257 0 -45
-137 -45 -138 -101 -3 -100 -3 236 641 236 641 79 -3 78 -3 234 -635z"/>
<path d="M8714 4486 c-62 -29 -110 -84 -129 -150 -23 -75 -21 -524 1 -594 44
-135 188 -204 335 -160 51 15 114 69 142 122 21 40 22 51 22 336 0 283 -1 297
-22 335 -65 122 -220 171 -349 111z"/>
<path d="M2875 4268 c-32 -95 -68 -201 -81 -235 l-23 -63 164 0 c91 0 165 3
165 7 0 13 -152 448 -159 456 -4 4 -33 -71 -66 -165z"/>
<path d="M7782 3004 c-64 -32 -108 -83 -127 -148 -22 -73 -21 -534 1 -598 36
-107 124 -168 242 -168 113 0 185 42 235 135 21 38 22 55 25 313 4 305 -2 342
-62 409 -72 83 -211 108 -314 57z"/>
<path d="M8670 2830 l0 -200 173 0 c94 0 188 5 207 10 41 11 94 61 109 103 15
40 14 142 -3 180 -19 45 -67 87 -112 98 -22 4 -114 9 -206 9 l-168 0 0 -200z"/>
<path d="M11177 2870 c-56 -156 -167 -483 -167 -491 0 -5 88 -9 196 -9 183 0
196 1 189 18 -6 15 -175 505 -187 542 -2 8 -16 -19 -31 -60z"/>
<path d="M5968 5685 c-3 -3 -18 -8 -34 -11 -55 -10 -133 -67 -170 -125 -58
-92 -65 -194 -20 -294 53 -117 147 -179 276 -179 99 -1 163 27 230 101 79 87
102 205 60 317 -28 73 -118 159 -192 181 -50 15 -139 20 -150 10z m-19 -285
c63 -42 71 -45 71 -31 0 5 -21 23 -47 40 -54 34 -44 43 11 10 30 -17 36 -18
36 -6 0 9 -6 18 -12 20 -7 3 24 6 70 6 l83 1 -3 -117 -3 -117 -35 -12 c-109
-36 -103 -35 -124 -15 -12 10 -42 31 -68 46 -27 15 -48 31 -48 36 0 15 8 11
70 -31 61 -42 70 -46 70 -31 0 4 -32 29 -71 55 -81 54 -88 75 -7 24 80 -51 78
-50 78 -36 -1 7 -32 33 -71 57 -38 24 -68 46 -65 48 3 3 35 -13 71 -36 38 -24
65 -36 65 -28 0 7 -31 32 -70 56 -38 23 -70 45 -70 47 0 11 22 1 78 -36 40
-25 62 -35 62 -26 0 8 -31 33 -70 56 -38 23 -70 46 -70 51 0 14 4 12 69 -31z"/>
</g>
</svg>
